HIERARCHY
ROOT root
{
	OFFSET	0	13.1	24.9
	CHANNELS 6  Xposition Yposition Zposition Xrotation Yrotation Zrotation
	JOINT spine_1
	{
		OFFSET	0	9.99999	0
		CHANNELS 3  Xrotation Yrotation Zrotation
		JOINT spine_2
		{
			OFFSET	0	112	-10
			CHANNELS 3  Xrotation Yrotation Zrotation
			JOINT spine_3
			{
				OFFSET	0	206.5	19.3
				CHANNELS 3  Xrotation Yrotation Zrotation
				JOINT spine_4
				{
					OFFSET	0	110.4	14.6
					CHANNELS 3  Xrotation Yrotation Zrotation
					JOINT neck_1
					{
						OFFSET	0	71.8	-50.3
						CHANNELS 3  Xrotation Yrotation Zrotation
						JOINT neck_2
						{
							OFFSET	0	86.2	-25.8
							CHANNELS 3  Xrotation Yrotation Zrotation
							JOINT head_ee
							{
								OFFSET	0	179.8	-8.7
								CHANNELS 3  Xrotation Yrotation Zrotation
								End Site
								{
									OFFSET	1	0	0
								}
							}
						}
					}
					JOINT left_clavicle
					{
						OFFSET	-43.2	22.4	-70.8
						CHANNELS 3  Xrotation Yrotation Zrotation
						JOINT left_shoulder
						{
							OFFSET	-93.9	-5.79999	48.7
							CHANNELS 3  Xrotation Yrotation Zrotation
							JOINT left_elbow
							{
								OFFSET	-291.4	-30.8	15.2
								CHANNELS 3  Xrotation Yrotation Zrotation
								JOINT left_lowarm_twist
								{
									OFFSET	-110.7	-3.89999	13.6
									CHANNELS 3  Xrotation Yrotation Zrotation
									JOINT left_hand
									{
										OFFSET	-110.7	-3.89999	13.6
										CHANNELS 3  Xrotation Yrotation Zrotation
										JOINT left_ee
										{
											OFFSET	-80.8	-5.10001	12.1
											CHANNELS 3  Xrotation Yrotation Zrotation
											End Site
											{
												OFFSET	1	0	0
											}
										}
									}
								}
							}
						}
					}
					JOINT right_clavicle
					{
						OFFSET	43.2	22.4	-70.8
						CHANNELS 3  Xrotation Yrotation Zrotation
						JOINT right_shoulder
						{
							OFFSET	93.9	-5.79999	48.7
							CHANNELS 3  Xrotation Yrotation Zrotation
							JOINT right_elbow
							{
								OFFSET	291.4	-30.8	15.2
								CHANNELS 3  Xrotation Yrotation Zrotation
								JOINT right_lowarm_twist
								{
									OFFSET	110.7	-3.89999	13.6
									CHANNELS 3  Xrotation Yrotation Zrotation
									JOINT right_hand
									{
										OFFSET	110.7	-3.89999	13.6
										CHANNELS 3  Xrotation Yrotation Zrotation
										JOINT right_ee
										{
											OFFSET	80.8	-5.10001	12.1
											CHANNELS 3  Xrotation Yrotation Zrotation
											End Site
											{
												OFFSET	1	0	0
											}
										}
									}
								}
							}
						}
					}
				}
			}
		}
	}
	JOINT left_hip
	{
		OFFSET	-82.8	-127.5	0.300001
		CHANNELS 3  Xrotation Yrotation Zrotation
		JOINT left_knee
		{
			OFFSET	-28.2	-396.7	2.2
			CHANNELS 3  Xrotation Yrotation Zrotation
			JOINT left_ankle
			{
				OFFSET	-11.7	-411.3	35.4
				CHANNELS 3  Xrotation Yrotation Zrotation
				JOINT left_toes
				{
					OFFSET	0	-60	-88.6
					CHANNELS 3  Xrotation Yrotation Zrotation
					JOINT left_foot_ee
					{
						OFFSET	-22.5	-16.5	-42.2
						CHANNELS 3  Xrotation Yrotation Zrotation
						End Site
						{
							OFFSET	1	0	0
						}
					}
				}
			}
		}
	}
	JOINT right_hip
	{
		OFFSET	82.8	-127.5	0.300001
		CHANNELS 3  Xrotation Yrotation Zrotation
		JOINT right_knee
		{
			OFFSET	28.2	-396.7	2.2
			CHANNELS 3  Xrotation Yrotation Zrotation
			JOINT right_ankle
			{
				OFFSET	11.7	-411.3	35.4
				CHANNELS 3  Xrotation Yrotation Zrotation
				JOINT right_toes
				{
					OFFSET	0	-60	-88.6
					CHANNELS 3  Xrotation Yrotation Zrotation
					JOINT right_foot_ee
					{
						OFFSET	22.5	-16.5	-42.2
						CHANNELS 3  Xrotation Yrotation Zrotation
						End Site
						{
							OFFSET	1	0	0
						}
					}
				}
			}
		}
	}
}
MOTION
Frames: 9
Frame Time: 0.02
421.754 755.075 -631.921 -145.222 -80.497 -142.259 0.968028 0.364202 -1.49993 0.969163 0.458898 -1.47372 0.957323 0.736004 -1.35676 0.95512 0.512517 -1.45595 -0.0974912 4.64053 -4.52311 0.098608 11.9631 -4.38424 -0.0 0.0 -0.0 1.8026 21.4216 5.06545 -10.19 -54.6024 59.0295 1.56361 -37.7575 0.534725 -85.125 -8.46755 5.18149 -0.0300336 13.2692 5.26643 -0.0 0.0 -0.0 2.06388 6.29871 -3.43027 -17.9803 12.4182 -66.0292 0.961187 25.4607 -0.217153 12.0544 -0.266315 1.51398 -0.418716 -1.58579 2.11694 0.0 0.0 0.0 7.85768 44.6849 -2.81236 -2.79212 0.10485 0.41563 14.1627 -10.6813 -2.08748 -15.7771 0.0 0.0 -0.0 0.0 -0.0 11.87 33.5688 -2.25526 -14.4325 -0.320403 -2.18583 10.0439 -8.60801 1.42755 0.0856916 -0.0 -0.0 0.0 0.0 0.0 
424.32 757.777 -629.068 -141.982 -81.0637 -139.051 1.02266 0.41893 -1.53275 1.02382 0.515603 -1.50299 1.01021 0.796059 -1.3752 1.00802 0.568907 -1.48364 -0.109159 4.60507 -4.50621 0.0845876 11.8862 -4.36818 -0.0 0.0 -0.0 1.58132 22.7415 4.83428 -9.61572 -54.5137 60.0321 1.61106 -38.5894 0.564049 -85.1148 -8.46627 5.18175 -0.0987206 13.4839 4.92 -0.0 0.0 -0.0 2.1785 6.73815 -3.6233 -17.858 12.5099 -66.241 0.939618 24.9597 -0.207966 12.0318 -0.266116 1.5111 -0.475404 -2.45355 2.1213 0.0 0.0 0.0 7.80841 44.7013 -2.73553 -2.80292 0.105216 0.417247 14.0452 -10.3433 -2.06725 -15.6522 0.0 0.0 -0.0 0.0 -0.0 11.2013 32.5536 -2.77463 -14.594 -0.320853 -2.2106 10.4109 -9.09337 1.47804 0.245907 -0.0 -0.0 0.0 0.0 0.0 
430.45 752.194 -618.938 -137.279 -82.2941 -134.575 1.05096 0.246002 -1.50974 1.05216 0.341561 -1.49103 1.0433 0.622127 -1.39744 1.04079 0.393645 -1.47814 -0.166139 3.37265 -4.87674 0.00308258 9.99227 -4.88855 -0.0 0.0 -0.0 1.2492 23.4787 4.42565 -9.51595 -53.861 59.9779 1.66387 -39.4933 0.597317 -84.4731 -8.386 5.19722 -0.427167 13.568 2.89299 -0.0 0.0 -0.0 2.31724 9.00171 -3.70474 -17.4424 11.5479 -67.1575 0.857268 23.009 -0.174487 12.0146 -0.265964 1.50892 -0.549427 -5.43432 1.32973 0.0 0.0 0.0 7.60756 44.7308 -3.19077 -2.80907 0.105424 0.418168 11.5431 -8.18423 -1.69717 -15.74 0.0 0.0 -0.0 0.0 -0.0 10.2806 28.4575 -2.49922 -15.0328 -0.321724 -2.27792 10.4749 -12.4286 1.49119 0.348595 -0.0 -0.0 0.0 0.0 0.0 
436.76 752.587 -615.824 -135.092 -83.6925 -132.474 0.983766 0.194327 -1.41106 0.984829 0.283714 -1.39584 0.977972 0.548515 -1.31455 0.975716 0.334043 -1.38466 -0.494336 2.5754 -4.55357 -0.366241 8.30025 -4.59265 -0.0 0.0 -0.0 0.672842 23.6257 3.64957 -10.2298 -53.3228 59.5983 1.73417 -40.6609 0.64258 -84.0415 -8.3319 5.20712 -0.665674 13.5201 1.37922 -0.0 0.0 -0.0 2.37932 11.5336 -3.6035 -17.1491 10.9564 -67.7665 0.856313 22.9861 -0.174114 12.0035 -0.265865 1.5075 -0.57563 -7.69074 0.533069 0.0 0.0 0.0 7.68388 44.6662 -3.45126 -3.70634 0.134759 0.552747 9.88198 -6.73371 -1.45221 -15.7571 0.0 0.0 -0.0 0.0 -0.0 8.12521 24.6269 -2.479 -16.0926 -0.3217 -2.44053 10.6521 -15.45 1.52404 0.445373 -0.0 -0.0 0.0 0.0 0.0 
441.64 751.587 -607.155 -136.577 -85.2763 -133.88 0.867388 0.1776 -1.22428 0.868185 0.255139 -1.2105 0.862851 0.486868 -1.13727 0.861172 0.301161 -1.19988 -0.753071 1.92782 -4.29094 -0.652655 6.92263 -4.36089 -0.0 0.0 -0.0 0.258589 23.7567 3.09793 -10.7871 -52.9365 59.3395 1.78382 -41.4617 0.675194 -83.656 -8.28352 5.21561 -0.833951 13.51 0.321556 -0.0 0.0 -0.0 2.41853 13.4234 -3.51048 -16.9862 10.6465 -68.5493 0.855338 22.9626 -0.173733 11.9898 -0.265743 1.50576 -0.564393 -9.19663 -0.182829 0.0 0.0 0.0 7.74807 44.6122 -3.61434 -4.3524 0.154573 0.649918 8.71489 -5.742 -1.28059 -15.7602 0.0 0.0 -0.0 0.0 -0.0 6.8116 21.9724 -2.59698 -15.3353 -0.322024 -2.32433 11.0544 -17.5561 1.58831 0.595269 -0.0 -0.0 0.0 0.0 0.0 
443.528 753.91 -602.611 -130.169 -86.2401 -127.729 0.781753 0.215605 -1.13712 0.782427 0.287522 -1.1211 0.776834 0.502712 -1.04252 0.77547 0.331768 -1.10882 -0.940488 1.45722 -4.08322 -0.857828 5.90614 -4.17884 -0.0 0.0 -0.0 -0.157729 23.8565 2.54339 -11.6085 -52.5689 58.9691 1.81161 -41.9014 0.693675 -83.3516 -8.24526 5.22209 -0.942781 13.5042 -0.362082 -0.0 0.0 -0.0 2.61797 15.2743 -3.75863 -16.2113 10.6379 -69.0867 0.858373 23.0356 -0.174919 11.981 -0.265664 1.50463 -0.557508 -10.2514 -0.675717 0.0 0.0 0.0 8.48875 44.2822 -4.72231 -4.7967 0.167562 0.716866 7.89427 -5.0782 -1.16017 -15.7479 0.0 0.0 -0.0 0.0 -0.0 5.60117 20.1536 -1.83135 -14.822 -0.32137 -2.24557 11.3349 -19.0306 1.63484 0.747257 -0.0 -0.0 0.0 0.0 0.0 
449.236 750.888 -593.136 -95.636 -87.6178 -93.8185 0.584784 0.0741577 -0.911346 0.585236 0.131996 -0.904781 0.583234 0.310502 -0.860027 0.582243 0.170785 -0.898268 -1.68611 -0.0250269 -4.57377 -1.61187 3.60218 -4.83352 -0.0 0.0 -0.0 0.0749779 22.6832 2.73338 -12.5741 -52.2329 58.0756 1.60206 -38.4331 0.558446 -83.139 -8.21852 5.22649 -1.11155 15.6245 -0.478248 -0.0 0.0 -0.0 2.83187 16.3056 -4.1167 -16.0011 10.6358 -69.7237 0.920444 24.5108 -0.199943 11.8353 -0.264335 1.48606 -0.617214 -10.1947 -0.269812 0.0 0.0 0.0 9.8515 41.1163 -5.22906 -5.09976 0.176124 0.762588 10.5374 -4.85488 -1.53247 -17.6633 0.0 0.0 -0.0 0.0 -0.0 3.75028 18.1446 -1.29829 -14.4672 -0.320506 -2.19115 13.7996 -18.7902 1.97157 0.873835 -0.0 -0.0 0.0 0.0 0.0 
451.791 754.238 -585.239 -65.3859 -87.5121 -63.9903 0.497502 0.123335 -0.66057 0.497729 0.165118 -0.651384 0.495876 0.293127 -0.604684 0.495418 0.193952 -0.643388 -2.25599 -1.22839 -5.24676 -2.17265 1.9252 -5.67073 -0.0 0.0 -0.0 0.24138 21.7794 2.8716 -13.2239 -52.0429 57.6046 1.46751 -36.0134 0.477034 -83.0353 -8.20547 5.2286 -1.22839 16.9809 -0.590931 -0.0 0.0 -0.0 3.03645 18.0285 -4.39178 -14.1681 11.0441 -69.3719 0.986386 26.0409 -0.228101 11.7291 -0.263337 1.47254 -0.657289 -10.1111 0.0222593 0.0 0.0 0.0 10.2858 38.4438 -4.84376 -5.33587 0.182626 0.79824 12.3916 -4.77848 -1.78863 -18.9062 0.0 0.0 -0.0 0.0 -0.0 2.72941 16.1902 -1.83262 -14.2343 -0.319755 -2.15542 15.5135 -18.487 2.20005 0.961721 -0.0 -0.0 0.0 0.0 0.0 
451.401 759.112 -580.942 -47.9603 -87.0345 -46.9443 0.242813 0.166874 -0.451911 0.242905 0.195292 -0.440377 0.241397 0.281849 -0.390682 0.24125 0.216611 -0.430291 -2.71776 -2.06474 -5.76527 -2.62313 0.777607 -6.30884 -0.0 0.0 -0.0 0.320818 21.1887 2.92421 -13.9166 -51.8276 57.0531 1.38023 -34.3595 0.426735 -82.9623 -8.19629 5.23007 -1.31002 17.9173 -0.6663 -0.0 0.0 -0.0 3.04255 19.2424 -4.28935 -13.1149 11.2836 -68.9339 1.03092 27.0522 -0.248005 11.6326 -0.262408 1.46026 -0.685689 -10.0484 0.230937 0.0 0.0 0.0 11.3221 36.3847 -5.55777 -5.46565 0.186137 0.817847 13.6916 -4.72772 -1.96544 -19.7758 0.0 0.0 -0.0 0.0 -0.0 1.99589 14.8254 -2.2002 -14.0311 -0.318981 -2.12425 16.7861 -18.2819 2.36714 1.03522 -0.0 -0.0 0.0 0.0 0.0 
